<?xml version="1.0" standalone="no"?>
<!DOCTYPE svg PUBLIC "-//W3C//DTD SVG 20010904//EN"
 "http://www.w3.org/TR/2001/REC-SVG-20010904/DTD/svg10.dtd">
<svg version="1.0" xmlns="http://www.w3.org/2000/svg"
 width="205.000000pt" height="205.000000pt" viewBox="0 0 205.000000 205.000000"
 preserveAspectRatio="xMidYMid meet">
<metadata>
Created by potrace 1.14, written by Peter Selinger 2001-2017
</metadata>
<g transform="translate(0.000000,205.000000) scale(0.100000,-0.100000)"
fill="#000000" stroke="none">
<path d="M965 1968 c-110 -22 -178 -102 -179 -213 -1 -76 30 -135 95 -182 40
-28 58 -34 120 -39 200 -15 288 -53 419 -183 89 -87 118 -138 136 -233 22
-125 -7 -270 -74 -374 -29 -43 -292 -316 -438 -454 -10 -9 -407 397 -445 455
-49 74 -77 166 -83 271 -6 97 -21 136 -70 185 -45 45 -97 66 -158 63 -92 -4
-173 -64 -203 -150 -24 -70 -8 -261 32 -389 96 -304 323 -533 628 -634 160
-52 314 -61 502 -26 134 24 321 120 437 225 151 136 266 335 302 520 2 14 7
39 11 55 24 116 1 339 -51 476 -127 339 -454 596 -796 625 -121 10 -145 10
-185 2z"/>
<path d="M959 1276 c-125 -45 -193 -135 -196 -261 -8 -298 393 -397 529 -131
47 91 30 225 -38 304 -69 81 -204 121 -295 88z"/>
</g>
</svg>
