<svg xmlns="http://www.w3.org/2000/svg" xmlns:xlink="http://www.w3.org/1999/xlink" width="500" zoomAndPan="magnify" viewBox="0 0 375 374.999991" height="500" preserveAspectRatio="xMidYMid meet" version="1.0"><defs><g/></defs><g fill="#ff5757" fill-opacity="1"><g transform="translate(144.872216, 174.720065)"><g><path d="M 24.355469 0.566406 C 32.757812 0.566406 40.027344 -4.164062 43.628906 -11.082031 L 35.582031 -15.25 C 33.535156 -11.226562 29.367188 -8.542969 24.355469 -8.542969 C 17.226562 -8.542969 11.789062 -14.050781 11.789062 -21.179688 C 11.789062 -28.308594 17.226562 -33.816406 24.355469 -33.816406 C 29.367188 -33.816406 33.535156 -31.132812 35.582031 -27.109375 L 43.628906 -31.273438 C 40.027344 -38.195312 32.757812 -42.921875 24.355469 -42.921875 C 12.355469 -42.921875 2.613281 -33.179688 2.613281 -21.179688 C 2.613281 -9.179688 12.355469 0.566406 24.355469 0.566406 Z M 24.355469 0.566406 "/></g></g></g><g fill="#ff5757" fill-opacity="1"><g transform="translate(189.205212, 174.720065)"><g><path d="M 35.652344 -7.34375 C 34.453125 -7.34375 33.179688 -7.765625 33.179688 -10.09375 L 33.179688 -28.238281 L 24.214844 -28.238281 L 24.214844 -25.769531 C 22.097656 -27.675781 19.414062 -28.804688 16.167969 -28.804688 C 8.332031 -28.804688 2.1875 -22.308594 2.1875 -14.121094 C 2.1875 -5.929688 8.332031 0.566406 16.167969 0.566406 C 20.261719 0.566406 23.578125 -1.269531 25.839844 -4.234375 C 27.605469 -1.339844 30.710938 0.566406 34.523438 0.566406 C 35.441406 0.566406 36.289062 0.28125 36.921875 0 L 36.921875 -7.34375 Z M 17.933594 -7.414062 C 14.191406 -7.414062 11.226562 -10.378906 11.226562 -14.121094 C 11.226562 -17.859375 14.191406 -20.828125 17.933594 -20.828125 C 21.601562 -20.828125 24.640625 -17.859375 24.640625 -14.121094 C 24.640625 -10.378906 21.601562 -7.414062 17.933594 -7.414062 Z M 17.933594 -7.414062 "/></g></g></g><g fill="#ff5757" fill-opacity="1"><g transform="translate(226.055226, 174.720065)"><g><path d="M 37.839844 -28.804688 C 33.816406 -28.804688 30.710938 -26.96875 28.945312 -23.863281 C 27.320312 -26.828125 24.496094 -28.804688 20.898438 -28.804688 C 17.648438 -28.804688 15.039062 -27.25 13.203125 -24.78125 L 13.203125 -28.238281 L 4.164062 -28.238281 L 4.164062 0 L 13.203125 0 L 13.203125 -16.378906 C 13.203125 -18.425781 14.472656 -20.828125 17.226562 -20.828125 C 19.695312 -20.828125 21.320312 -18.851562 21.320312 -16.378906 L 21.320312 0 L 30.355469 0 L 30.355469 -16.378906 C 30.355469 -18.425781 31.628906 -20.828125 34.382812 -20.828125 C 36.851562 -20.828125 38.546875 -18.851562 38.546875 -16.378906 L 38.546875 0 L 47.511719 0 L 47.511719 -17.859375 C 47.511719 -24.425781 44.054688 -28.804688 37.839844 -28.804688 Z M 37.839844 -28.804688 "/></g></g></g><g fill="#ff5757" fill-opacity="1"><g transform="translate(276.035764, 174.720065)"><g><path d="M 21.25 -28.804688 C 18.003906 -28.804688 15.320312 -27.675781 13.203125 -25.769531 L 13.203125 -28.167969 L 4.164062 -28.238281 L 4.164062 16.945312 L 13.203125 17.015625 L 13.203125 -2.472656 C 15.320312 -0.566406 18.003906 0.566406 21.25 0.566406 C 29.015625 0.566406 35.15625 -5.929688 35.15625 -14.121094 C 35.15625 -22.308594 29.015625 -28.804688 21.25 -28.804688 Z M 19.484375 -7.414062 C 15.742188 -7.414062 12.777344 -10.378906 12.777344 -14.121094 C 12.777344 -17.859375 15.742188 -20.828125 19.484375 -20.828125 C 23.226562 -20.828125 26.191406 -17.859375 26.191406 -14.121094 C 26.191406 -10.378906 23.226562 -7.414062 19.484375 -7.414062 Z M 19.484375 -7.414062 "/></g></g></g><g fill="#ff5757" fill-opacity="1"><g transform="translate(312.250419, 174.720065)"><g><path d="M 16.800781 0.566406 C 25.34375 0.566406 30.074219 -3.882812 30.074219 -10.800781 L 30.074219 -28.238281 L 21.109375 -28.238281 L 21.109375 -12 C 21.109375 -9.320312 19.273438 -7.414062 16.800781 -7.414062 C 14.402344 -7.414062 12.566406 -9.320312 12.566406 -12 L 12.566406 -28.238281 L 3.53125 -28.238281 L 3.53125 -10.800781 C 3.53125 -3.882812 8.261719 0.566406 16.800781 0.566406 Z M 16.800781 0.566406 "/></g></g></g><g fill="#ff5757" fill-opacity="1"><g transform="translate(344.794177, 174.720065)"><g><path d="M 13.273438 0.566406 C 19.625 0.566406 23.507812 -3.316406 23.507812 -8.613281 C 23.507812 -14.261719 18.851562 -16.519531 14.824219 -18.074219 C 12.777344 -18.921875 11.789062 -19.34375 11.789062 -20.402344 C 11.789062 -21.320312 12.496094 -22.027344 14.050781 -22.027344 C 15.882812 -22.027344 17.578125 -21.039062 18.425781 -19.980469 L 22.945312 -25.0625 C 20.828125 -27.179688 17.367188 -28.804688 13.414062 -28.804688 C 6.988281 -28.804688 2.894531 -24.566406 2.894531 -19.765625 C 2.894531 -14.121094 8.542969 -12.214844 11.789062 -11.011719 C 14.332031 -10.023438 15.179688 -9.320312 15.179688 -8.332031 C 15.179688 -7.199219 14.191406 -6.566406 12.707031 -6.566406 C 11.226562 -6.566406 9.25 -7.128906 7.976562 -9.53125 L 1.339844 -6.210938 C 3.035156 -1.835938 8.261719 0.566406 13.273438 0.566406 Z M 13.273438 0.566406 "/></g></g></g><g fill="#38b6ff" fill-opacity="1"><g transform="translate(190.862668, 228.097584)"><g><path d="M 29.652344 -21.460938 C 32.828125 -23.15625 34.875 -26.121094 34.875 -30.570312 C 34.875 -38.050781 29.226562 -42.359375 22.097656 -42.359375 L 4.164062 -42.359375 L 4.164062 0 L 23.722656 0 C 30.78125 0 36.289062 -4.09375 36.289062 -11.578125 C 36.289062 -16.730469 33.605469 -19.910156 29.652344 -21.460938 Z M 25.554688 -29.582031 C 25.554688 -27.109375 23.507812 -24.992188 20.96875 -24.992188 L 13.484375 -24.992188 L 13.484375 -34.097656 L 20.96875 -34.097656 C 23.507812 -34.097656 25.554688 -32.121094 25.554688 -29.582031 Z M 22.378906 -8.261719 L 13.484375 -8.261719 L 13.484375 -17.367188 L 22.378906 -17.367188 C 24.992188 -17.367188 26.96875 -15.25 26.96875 -12.777344 C 26.96875 -10.238281 24.992188 -8.261719 22.378906 -8.261719 Z M 22.378906 -8.261719 "/></g></g></g><g fill="#38b6ff" fill-opacity="1"><g transform="translate(228.065647, 228.097584)"><g><path d="M 35.652344 -7.34375 C 34.453125 -7.34375 33.179688 -7.765625 33.179688 -10.09375 L 33.179688 -28.238281 L 24.214844 -28.238281 L 24.214844 -25.769531 C 22.097656 -27.675781 19.414062 -28.804688 16.167969 -28.804688 C 8.332031 -28.804688 2.1875 -22.308594 2.1875 -14.121094 C 2.1875 -5.929688 8.332031 0.566406 16.167969 0.566406 C 20.261719 0.566406 23.578125 -1.269531 25.839844 -4.234375 C 27.605469 -1.339844 30.710938 0.566406 34.523438 0.566406 C 35.441406 0.566406 36.289062 0.28125 36.921875 0 L 36.921875 -7.34375 Z M 17.933594 -7.414062 C 14.191406 -7.414062 11.226562 -10.378906 11.226562 -14.121094 C 11.226562 -17.859375 14.191406 -20.828125 17.933594 -20.828125 C 21.601562 -20.828125 24.640625 -17.859375 24.640625 -14.121094 C 24.640625 -10.378906 21.601562 -7.414062 17.933594 -7.414062 Z M 17.933594 -7.414062 "/></g></g></g><g fill="#38b6ff" fill-opacity="1"><g transform="translate(264.915661, 228.097584)"><g><path d="M 13.273438 0.566406 C 19.625 0.566406 23.507812 -3.316406 23.507812 -8.613281 C 23.507812 -14.261719 18.851562 -16.519531 14.824219 -18.074219 C 12.777344 -18.921875 11.789062 -19.34375 11.789062 -20.402344 C 11.789062 -21.320312 12.496094 -22.027344 14.050781 -22.027344 C 15.882812 -22.027344 17.578125 -21.039062 18.425781 -19.980469 L 22.945312 -25.0625 C 20.828125 -27.179688 17.367188 -28.804688 13.414062 -28.804688 C 6.988281 -28.804688 2.894531 -24.566406 2.894531 -19.765625 C 2.894531 -14.121094 8.542969 -12.214844 11.789062 -11.011719 C 14.332031 -10.023438 15.179688 -9.320312 15.179688 -8.332031 C 15.179688 -7.199219 14.191406 -6.566406 12.707031 -6.566406 C 11.226562 -6.566406 9.25 -7.128906 7.976562 -9.53125 L 1.339844 -6.210938 C 3.035156 -1.835938 8.261719 0.566406 13.273438 0.566406 Z M 13.273438 0.566406 "/></g></g></g><g fill="#38b6ff" fill-opacity="1"><g transform="translate(288.63515, 228.097584)"><g><path d="M 32.898438 -14.191406 C 32.898438 -23.015625 26.828125 -28.875 17.71875 -28.875 C 8.613281 -28.875 2.1875 -22.945312 2.1875 -14.121094 C 2.1875 -5.292969 8.542969 0.566406 18.003906 0.566406 C 25.839844 0.566406 31.0625 -3.601562 32.476562 -9.742188 L 23.792969 -9.742188 C 23.015625 -7.484375 20.96875 -6.140625 17.859375 -6.140625 C 13.765625 -6.140625 11.648438 -8.613281 11.296875 -12.636719 L 32.898438 -12.636719 Z M 17.859375 -21.957031 C 20.898438 -21.957031 22.660156 -20.542969 23.578125 -18.074219 L 11.859375 -18.074219 C 12.777344 -20.472656 14.683594 -21.957031 17.859375 -21.957031 Z M 17.859375 -21.957031 "/></g></g></g><path fill="#38b6ff" d="M 52.160156 240.828125 L 92.519531 200.375 C 106.214844 186.644531 106.214844 164.390625 92.519531 150.664062 L 113.667969 129.46875 C 139.464844 155.328125 139.464844 197.253906 113.667969 223.113281 C 96.980469 239.835938 73.585938 245.738281 52.160156 240.828125 Z M 52.160156 240.828125 " fill-opacity="1" fill-rule="nonzero"/><path fill="#969696" d="M 52.15625 240.824219 L 66.949219 225.996094 L 71.609375 221.328125 L 81.75 240.832031 C 69.640625 242.582031 63.539062 242.699219 52.15625 240.824219 Z M 52.15625 240.824219 " fill-opacity="1" fill-rule="nonzero"/><path fill="#ff5757" d="M 80.492188 189.964844 C 72.957031 197.457031 60.785156 197.40625 53.3125 189.851562 C 45.835938 182.300781 45.882812 170.101562 53.421875 162.609375 C 60.957031 155.117188 73.125 155.164062 80.601562 162.71875 C 88.074219 170.273438 88.027344 182.472656 80.492188 189.964844 Z M 131.34375 191.117188 C 136.246094 169.640625 130.359375 146.191406 113.667969 129.464844 C 99.898438 115.664062 81.566406 109.230469 63.539062 110.164062 C 50.582031 110.832031 44.519531 126.550781 53.699219 135.75 L 54.070312 136.121094 C 56.976562 139.039062 60.976562 140.515625 65.089844 140.386719 C 74.425781 140.097656 83.855469 143.519531 90.980469 150.664062 Z M 31.136719 174.414062 C 31.265625 170.292969 29.789062 166.285156 26.882812 163.367188 L 26.511719 162.996094 C 17.335938 153.800781 1.652344 159.871094 0.984375 172.859375 C 0.0546875 190.929688 6.472656 209.304688 20.242188 223.109375 C 36.929688 239.835938 60.324219 245.738281 81.746094 240.824219 L 41.390625 200.367188 C 34.265625 193.226562 30.847656 183.773438 31.136719 174.414062 Z M 31.136719 174.414062 " fill-opacity="1" fill-rule="nonzero"/></svg>